<svg xmlns="http://www.w3.org/2000/svg" width="48" height="49" fill="none"><g clip-path="url(#a)"><path fill="#fff" d="M23.5 8.133c-2.1 0-4.153.634-5.899 1.82a10.77 10.77 0 0 0-3.91 4.85 11 11 0 0 0-.605 6.242 10.87 10.87 0 0 0 2.906 5.532 10.56 10.56 0 0 0 5.436 2.957 10.45 10.45 0 0 0 6.135-.615 10.66 10.66 0 0 0 4.765-3.98 10.94 10.94 0 0 0 1.79-6.002 10.9 10.9 0 0 0-3.114-7.636A10.54 10.54 0 0 0 23.5 8.133m0 18.608c-1.517 0-3-.457-4.26-1.315a7.8 7.8 0 0 1-2.826-3.502 7.93 7.93 0 0 1-.436-4.51 7.85 7.85 0 0 1 2.099-3.995 7.63 7.63 0 0 1 3.927-2.136 7.55 7.55 0 0 1 4.43.444 7.7 7.7 0 0 1 3.443 2.874 7.9 7.9 0 0 1 1.292 4.336 7.88 7.88 0 0 1-2.248 5.516A7.6 7.6 0 0 1 23.5 26.74Zm17.947-7.467c.5-.992.667-2.123.477-3.221a5.14 5.14 0 0 0-1.53-2.861l-1.97-1.882a2 2 0 0 1-.613-1.078l-.616-2.677a5.13 5.13 0 0 0-1.67-2.78 4.98 4.98 0 0 0-2.98-1.19l-2.697-.152a1.96 1.96 0 0 1-1.15-.426l-2.163-1.648A4.97 4.97 0 0 0 23.5.322a4.97 4.97 0 0 0-3.035 1.037l-2.163 1.648c-.33.262-.732.411-1.15.426l-2.698.153a4.98 4.98 0 0 0-2.98 1.19 5.13 5.13 0 0 0-1.67 2.78l-.615 2.676a2.02 2.02 0 0 1-.613 1.079l-1.97 1.88a5.14 5.14 0 0 0-1.53 2.862 5.2 5.2 0 0 0 .477 3.22l1.219 2.454c.197.376.271.805.212 1.227l-.32 2.73a5.2 5.2 0 0 0 .635 3.192 5.06 5.06 0 0 0 2.4 2.156l2.483 1.083q.057.024.112.052v14.655a1.52 1.52 0 0 0 .67 1.258 1.46 1.46 0 0 0 1.402.114l9.134-4.122 9.134 4.121a1.45 1.45 0 0 0 1.402-.113 1.5 1.5 0 0 0 .492-.542 1.5 1.5 0 0 0 .178-.716V32.167q.054-.027.112-.053l2.484-1.082a5.06 5.06 0 0 0 2.4-2.156c.547-.965.77-2.086.634-3.192l-.32-2.73a2.04 2.04 0 0 1 .212-1.227zm-17.35 21.785a1.45 1.45 0 0 0-1.195 0l-7.66 3.457v-8.489a5 5 0 0 0 1.636 1.13 4.9 4.9 0 0 0 1.938.396 5 5 0 0 0 1.486-.225l2.586-.795a1.94 1.94 0 0 1 1.224 0l2.586.795a4.94 4.94 0 0 0 2.709.072 5 5 0 0 0 2.35-1.37v8.486zm14.719-23.138-1.219 2.453a5.1 5.1 0 0 0-.509 2.936l.32 2.73c.062.463-.03.933-.259 1.337s-.584.72-1.008.897l-2.483 1.082a4.94 4.94 0 0 0-2.245 1.917l-1.479 2.3a2.08 2.08 0 0 1-1.043.855c-.431.16-.902.17-1.34.028l-2.586-.795a4.83 4.83 0 0 0-2.93 0l-2.586.795a2.04 2.04 0 0 1-1.34-.028 2.1 2.1 0 0 1-1.043-.854l-1.479-2.3a4.94 4.94 0 0 0-2.244-1.917l-2.484-1.083a2.1 2.1 0 0 1-1.008-.897 2.14 2.14 0 0 1-.26-1.337l.32-2.73a5.1 5.1 0 0 0-.508-2.936L8.184 17.92a2.144 2.144 0 0 1 .44-2.54l1.97-1.882a5 5 0 0 0 1.466-2.582l.616-2.676c.098-.457.341-.867.693-1.167s.79-.473 1.249-.492l2.697-.153a4.86 4.86 0 0 0 2.754-1.02l2.163-1.647a2.05 2.05 0 0 1 2.536 0l2.163 1.647a4.86 4.86 0 0 0 2.753 1.02l2.698.153c.459.019.898.192 1.25.492.35.3.595.71.693 1.166l.616 2.677c.219.992.73 1.893 1.465 2.582l1.97 1.881c.339.315.566.735.646 1.194.08.46.007.934-.206 1.348"/></g><defs><clipPath id="a"><path fill="#fff" d="M0 .322h48v48H0z"/></clipPath></defs></svg>