<svg version="1.2" xmlns="http://www.w3.org/2000/svg" viewBox="0 0 1024 1024" width="1024" height="1024">
	<title>Gemini_Generated_Image_tnll8rtnll8rtnll</title>
	<style>
		.s0 { fill: #142353 } 
		.s1 { opacity: 1;fill: #40c3ab } 
	</style>
	<g id="Background">
		<path id="Path 1" fill-rule="evenodd" class="s0" d="m277 416.08c4.13-0.06 11.44 0.58 16.25 1.41 4.81 0.83 12.46 2.87 17 4.54 4.54 1.67 11.18 4.65 14.75 6.63 3.57 1.97 8.98 5.5 12 7.84 3.02 2.34 7.77 6.67 10.55 9.63 2.78 2.95 7.03 8.3 9.45 11.87 2.41 3.58 6.07 10.1 8.12 14.5 2.06 4.4 4.78 11.83 6.04 16.5 1.96 7.22 2.3 10.84 2.25 24-0.04 12.66-0.45 16.97-2.22 23.5-1.19 4.4-4.37 12.5-7.06 18-3.04 6.19-7.57 13.24-11.9 18.5-3.85 4.67-10.32 11.09-14.37 14.25-4.05 3.16-10.51 7.39-14.36 9.4-3.85 2.01-9.48 4.53-12.5 5.61-3.02 1.08-9.32 2.76-14 3.74-6.23 1.3-11.97 1.7-21.5 1.5-9.17-0.2-15.43-0.91-21.25-2.39-4.54-1.16-11.74-3.73-16-5.71-4.26-1.98-10.68-5.53-14.25-7.9-3.57-2.37-10.35-8.28-15.06-13.15-5.06-5.23-10.49-12.12-13.26-16.85-2.58-4.4-6.04-11.71-7.68-16.25-1.65-4.54-3.73-12.41-4.61-17.5-1.12-6.4-1.46-12.48-1.1-19.75 0.28-5.77 1.29-13.87 2.25-18 0.95-4.12 3.15-10.87 4.87-15 1.73-4.12 5.67-11.32 8.77-16 3.1-4.67 8.94-11.68 12.98-15.57 4.03-3.89 10.27-9.04 13.84-11.44 3.57-2.4 9.2-5.59 12.5-7.08 3.3-1.49 8.7-3.49 12-4.45 3.3-0.96 9.15-2.31 13-3.01 3.85-0.7 10.38-1.31 14.5-1.37zm249 31.92h14v12h-14zm-100.06 2l12.56-0.04 9.44 21.77c5.19 11.97 11.38 25.93 18.06 40.27h-15l-5.5-13.06-27 0.01-5.27 12.55-14.23 0.5 1.38-3.25c0.76-1.79 5.98-13.82 11.61-26.75 5.63-12.92 11.08-25.41 12.1-27.75zm1.89 27.26c-1.86 4.82-3.48 8.98-3.61 9.25-0.12 0.27 3.37 0.49 7.77 0.49 7.11 0 7.96-0.2 7.6-1.75-0.23-0.96-1.96-5.5-3.84-10.08-1.89-4.58-3.68-7.96-3.98-7.5-0.3 0.46-2.07 4.77-3.94 9.59zm147.16-12.24c1.93-0.03 5.75 0.64 8.5 1.48 2.75 0.84 6.55 2.76 8.45 4.27 1.89 1.5 4.47 4.98 5.74 7.73 1.54 3.36 2.3 6.89 2.3 10.75 0.01 3.16-0.69 7.44-1.54 9.5-0.85 2.06-2.77 5.03-4.25 6.59-1.48 1.56-4.5 3.77-6.7 4.89-2.2 1.13-6.7 2.28-10 2.55-3.44 0.28-7.7-0.03-10-0.75-2.2-0.68-5.68-2.32-7.75-3.63-2.06-1.32-4.98-4.54-6.5-7.15-2.29-3.97-2.74-5.9-2.72-11.75 0.03-5.18 0.59-8.04 2.16-11 1.17-2.2 3.57-5.35 5.33-7 1.75-1.65 5.51-3.77 8.34-4.72 2.83-0.94 6.72-1.74 8.64-1.76zm-10.69 21.48c-0.32 2.2-0.29 5.24 0.06 6.75 0.35 1.51 1.87 3.89 3.38 5.28 2.16 1.99 3.78 2.53 7.5 2.5 3.75-0.02 5.4-0.61 7.82-2.78 2.08-1.87 3.25-4.03 3.65-6.75 0.37-2.47 0.06-5.3-0.81-7.41-0.77-1.88-2.53-4.25-3.91-5.28-1.55-1.17-4.1-1.87-6.73-1.84-3.17 0.02-5 0.72-7.31 2.78-2.12 1.89-3.26 4-3.65 6.75zm73.44-21.46c1.79-0.02 4.49 0.44 6 1.02 1.52 0.59 3.97 2.28 8.15 6.44l3.05-2.75c1.68-1.51 4.97-3.24 7.3-3.84 2.34-0.6 6.17-0.83 8.5-0.5 2.58 0.36 5.49 1.67 7.39 3.34 1.72 1.51 3.85 4.1 4.72 5.75 1.24 2.34 1.65 6.82 2.14 37.5h-13l0.02-13.25c0.01-7.29-0.44-14.71-1-16.5-0.56-1.79-1.92-3.7-3.02-4.25-1.1-0.55-3.46-1.01-5.25-1.03-2.21-0.01-4.04 0.81-5.75 2.58-2.41 2.51-2.51 3.13-3 32.45h-13v-15c0-14.67-0.05-15.06-2.5-17.5-1.55-1.56-3.63-2.5-5.5-2.5-1.74 0-4.15 1.01-5.75 2.41-2.74 2.41-2.75 2.43-3.25 32.59h-13v-46h6.5c6.44 0 6.5 0.03 6.47 2.75-0.03 2.6 0.06 2.66 1.75 1.06 0.98-0.93 3.36-2.37 5.28-3.21 1.93-0.84 4.97-1.54 6.75-1.56zm-152.25 0.93l3.75 6.52c2.07 3.58 4.2 6.28 4.75 6.01 0.55-0.27 2.69-3.22 8.5-12.58l6.75 0.04c3.72 0.02 6.75 0.27 6.75 0.54 0 0.27-3.15 5-7 10.5-3.91 5.59-6.78 10.66-6.5 11.5 0.28 0.82 3.34 5.89 6.8 11.25 3.46 5.36 6.61 10.31 7 11 0.53 0.95-1.04 1.25-13.8 1.27l-4.5-7.54c-3.52-5.9-4.71-7.23-5.5-6.1-0.55 0.8-2.68 4.19-8.5 13.62h-7c-5.28 0-6.84-0.31-6.34-1.25 0.36-0.69 3.93-5.98 15.2-22.25l-6.93-10.5c-3.81-5.77-6.92-10.84-6.92-11.25-0.01-0.41 3.03-0.76 13.49-0.78zm41.5 0.03h13.01l-0.51 45.5-12.5 0.5z"/>
		<path id="Path 2" fill-rule="evenodd" class="s1" d="m436.11 537c1.59 0 2.89 0.45 2.89 1 0 0.55 0 1.9 0 3 0 1.1 0 8.52 0 31l-6.04-0.5-0.45-12.5c-0.25-6.88-0.19-14.64 0.13-17.25 0.55-4.43 0.78-4.75 3.47-4.75zm86.89 0h7v12l2.25-1.51c1.24-0.83 3.37-1.51 4.75-1.53 1.37-0.01 4.08 1.03 6 2.3 2.28 1.51 3.96 3.7 4.81 6.28 0.77 2.33 1.03 5.4 0.64 7.46-0.38 1.99-2.1 4.91-3.96 6.75-2.39 2.36-4.21 3.25-6.64 3.26-1.84 0-4.36-0.67-5.6-1.5-1.66-1.12-2.25-1.18-2.26-0.26 0 0.81-1.24 1.16-6.99 0.75zm6.91 21.82c0.03 1.47 0.63 3.51 1.32 4.53 0.7 1.01 2.39 1.89 3.77 1.95 1.37 0.06 3.31-0.55 4.29-1.35 1.13-0.91 1.79-2.76 1.77-4.95-0.01-1.92-0.6-4.07-1.29-4.77-0.7-0.69-2.48-1.26-3.95-1.25-1.47 0.01-3.42 0.73-4.32 1.59-0.9 0.87-1.62 2.78-1.59 4.25zm28.09-21.82c3.78 0 4 0.17 4 3 0 2.83-0.22 3-4 3-3.78 0-4-0.17-4-3 0-2.83 0.22-3 4-3zm-157 2h8.75c6.99 0.01 9.4 0.41 12 2 1.79 1.1 3.7 3.13 4.25 4.5 0.55 1.37 1 3.63 1 5 0 1.37-0.56 3.66-1.25 5.08-0.69 1.42-2.38 3.28-3.75 4.14-1.38 0.87-5.07 1.84-13.93 2.78l-0.29 4.41c-0.27 4.23-0.41 4.41-6.78 4.59zm6.97 17.5c6.61-1.15 9.11-2.05 9.82-2.74 0.72-0.69 1.28-2.5 1.25-4.01-0.02-1.51-0.38-2.95-0.79-3.2-0.41-0.25-2.82-0.76-5.34-1.14l-4.6-0.68zm37.88-10l6.7 0.72 0.21 7.64c0.13 4.57 0.72 8.15 1.48 8.9 0.69 0.7 2.16 1.28 3.26 1.3 1.1 0.01 2.68-0.74 3.5-1.68 0.92-1.05 1.7-4.6 2.5-16.4l6 0.02-0.16 8.25c-0.09 4.54-0.2 9.94-0.34 15.75l-4.75-0.04c-2.61-0.01-6.32 0.26-8.25 0.62-2.85 0.52-4.05 0.18-6.5-1.88-2.92-2.46-3-2.77-3.32-12.86zm44.65-0.49c1.1 0 3.46 0.89 5.25 1.99 2.91 1.79 3.38 1.83 4.5 0.45 0.69-0.85 2.6-1.78 4.25-2.07 1.65-0.28 4.24-0.04 5.75 0.55 1.65 0.64 3.35 2.46 4.25 4.57 0.92 2.14 1.5 6.61 1.5 19.5l-6.99 0.5v-7.25c-0.01-3.99-0.46-8.15-1.01-9.25-0.56-1.13-2-2-3.3-2-1.26 0-2.85 0.56-3.52 1.25-0.74 0.76-1.21 4.24-1.18 16.75l-6.99 0.5v-7.25c-0.01-3.99-0.46-8.15-1.01-9.25q-1-2-4-2c-2.27 0-3.24 0.61-4 2.5-0.55 1.37-1 5.53-1 16l-6.5-0.2-0.5-24.3h3.5c1.93 0 3.45 0.42 3.39 0.94-0.07 0.51 1.17 0.29 2.75-0.5 1.57-0.79 3.76-1.43 4.86-1.43zm78 0.24l3 0.46c1.65 0.26 3.11 0.88 3.25 1.38 0.14 0.5 1.65 0.2 3.36-0.67 2-1.01 4.42-1.37 6.75-1 2.9 0.45 4 1.27 5.39 4.07 1.28 2.56 1.75 5.94 1.75 21.51h-7l-0.02-8.25c-0.02-6.43-0.41-8.65-1.75-10.04-0.95-0.98-2.18-1.75-2.73-1.72-0.55 0.03-1.8 0.83-2.78 1.78-1.42 1.37-1.78 3.32-1.75 9.48 0.02 5.5-0.33 7.77-1.22 7.83-0.69 0.05-2.24 0.16-3.44 0.25-2.14 0.16-2.2-0.17-2.5-12.46zm40.15-0.26c2.12 0 4.86 0.67 6.1 1.5 2 1.34 2.25 1.34 2.25 0.01 0-1.04 1.04-1.5 6.8-1.5l-0.15 13.42c-0.14 12.85-0.26 13.54-2.65 16.05-1.38 1.44-4.19 3.05-6.25 3.58-2.06 0.52-5.44 0.71-7.5 0.42-2.06-0.3-4.59-1.09-5.61-1.75-1.3-0.85-1.68-1.9-1.25-3.47 0.5-1.86 1.08-2.14 3.36-1.62 1.51 0.34 4.37 0.68 6.34 0.75 1.98 0.07 4.36-0.55 5.3-1.38 0.93-0.82 1.68-2.51 1.65-3.75-0.04-2.11-0.18-2.16-2.29-0.74-1.24 0.83-3.71 1.5-5.5 1.5-1.79 0-4.43-0.57-5.87-1.26-1.44-0.69-3.24-2.49-4-4-0.76-1.51-1.34-4.59-1.28-6.85 0.08-3.21 0.82-4.84 3.4-7.5 2.62-2.7 4.09-3.4 7.15-3.41zm-3.43 12.5c0.21 2.22 1.06 3.35 3.28 4.36 2.68 1.21 3.26 1.15 5.5-0.6 1.37-1.07 2.61-2.92 2.75-4.1 0.14-1.18-0.65-3.05-1.75-4.15-1.1-1.1-3.06-2-4.35-2-1.3 0-3.11 0.79-4.04 1.75-0.99 1.04-1.56 2.97-1.39 4.74zm-50.22-11.49h5.98l0.26 11.6c0.14 6.39 0.03 11.9-0.24 12.25-0.28 0.36-1.74 0.65-5.99 0.65zm-276.78-102.5l1.73 5c0.96 2.75 3.63 9.05 5.96 14 2.32 4.95 6.52 12.83 9.34 17.5 2.82 4.68 8.9 13.9 13.52 20.5 4.61 6.6 10.12 15.6 12.24 20 2.12 4.4 4.55 10.7 5.4 14 0.85 3.3 1.51 9.38 1.47 13.5-0.05 4.13-0.38 8.54-0.73 9.8-0.41 1.42-2.29 3.05-9.15 6.2l-0.45-2.25c-0.24-1.24-0.69-3.82-0.99-5.75-0.3-1.92-2.06-6.65-3.9-10.5-1.85-3.87-7.51-12.14-12.66-18.5-5.12-6.32-11.84-15.32-14.94-20-3.1-4.67-6.97-11.98-8.6-16.23-1.88-4.89-3.33-7.41-3.96-6.87-0.55 0.48-2.55 4.18-4.43 8.24-2.7 5.8-3.52 8.96-3.82 14.86-0.22 4.13-0.92 8.85-1.56 10.5-0.64 1.65-4.73 7.73-9.08 13.5-4.35 5.78-9.28 13.43-10.96 17-1.67 3.58-3.29 8.64-3.59 11.26-0.31 2.62-0.68 4.76-0.81 4.75-0.14 0-2.05-0.91-4.25-2.01-2.24-1.12-4.3-2.99-4.67-4.25-0.37-1.24-0.66-6.3-0.65-11.25 0.02-7.08 0.58-10.65 2.67-16.75 1.45-4.26 4.09-10.34 5.85-13.5 1.76-3.16 8.01-12.95 13.89-21.75 5.89-8.8 13.2-20.72 16.26-26.5 3.05-5.77 6.2-12.3 7-14.5 0.79-2.2 1.99-5.35 2.66-7zm-1.3 91.79l8.38 12.1c4.61 6.66 9.42 14.14 10.68 16.61 1.49 2.92 2.3 6.26 2.3 9.5 0 3.13-0.8 6.6-2.14 9.25-1.26 2.49-3.88 5.39-6.33 7-3.12 2.05-5.74 2.85-10.25 3.12-4.65 0.29-7.01-0.1-10.07-1.65-2.2-1.11-4.99-3.08-6.19-4.37-1.21-1.29-2.9-4.04-3.75-6.1-0.86-2.06-1.56-5.66-1.55-8 0.01-2.34 1.05-6.5 2.32-9.25 1.27-2.75 4.57-8.37 7.32-12.5 2.75-4.12 5.97-9.35 7.14-11.61z"/>
	</g>
</svg>