<svg version="1.2" xmlns="http://www.w3.org/2000/svg" viewBox="0 0 1024 398" width="1024" height="398">
	<title>Axiom-plumbing</title>
	<style>
		.s0 { fill: #142353 } 
		.s1 { fill: #40c3ab } 
	</style>
	<g id="Background">
		<path id="Path 1" fill-rule="evenodd" class="s0" d="m193.15 4.01c8.41-0.12 23.3 1.18 33.09 2.87 9.8 1.69 25.38 5.84 34.62 9.24 9.25 3.41 22.77 9.47 30.04 13.51 7.27 4.01 18.29 11.2 24.44 15.96 6.15 4.77 15.82 13.58 21.48 19.61 5.66 6.01 14.32 16.91 19.25 24.18 4.9 7.29 12.36 20.56 16.53 29.52 4.2 8.96 9.74 24.09 12.3 33.61 3.99 14.7 4.69 22.07 4.59 48.87-0.09 25.78-0.92 34.56-4.53 47.86-2.42 8.96-8.9 25.45-14.37 36.65-6.19 12.61-15.42 26.96-24.24 37.68-7.84 9.51-21.01 22.58-29.26 29.02-8.25 6.43-21.4 15.04-29.24 19.14-7.84 4.09-19.31 9.22-25.46 11.42-6.15 2.2-18.98 5.62-28.51 7.62-12.69 2.65-24.38 3.46-43.78 3.05-18.68-0.4-31.43-1.85-43.28-4.86-9.24-2.37-23.91-7.6-32.58-11.63-8.68-4.03-21.75-11.26-29.02-16.09-7.27-4.83-21.08-16.86-30.67-26.78-10.3-10.65-21.36-24.68-27-34.31-5.26-8.96-12.3-23.85-15.64-33.09-3.36-9.25-7.6-25.28-9.39-35.64-2.28-13.04-2.97-25.42-2.24-40.22 0.57-11.75 2.63-28.25 4.58-36.66 1.94-8.39 6.42-22.13 9.92-30.55 3.52-8.39 11.55-23.05 17.86-32.58 6.31-9.51 18.2-23.78 26.43-31.71 8.21-7.92 20.92-18.41 28.19-23.29 7.27-4.89 18.73-11.39 25.45-14.42 6.72-3.03 17.72-7.11 24.44-9.06 6.72-1.96 18.63-4.71 26.47-6.13 7.84-1.43 21.14-2.67 29.53-2.79zm535.59 65v24.44h-28.51v-24.44zm-232.28 4.07l25.58-0.08 19.22 44.34c10.57 24.37 23.18 52.8 36.78 82h-30.55l-11.2-26.59-54.98 0.02-10.73 25.56-28.98 1.01 2.81-6.62c1.55-3.64 12.18-28.14 23.64-54.47 11.47-26.31 22.56-51.75 24.64-56.51zm3.85 55.51c-3.79 9.82-7.09 18.29-7.35 18.84-0.25 0.55 6.86 1 15.82 1 14.48 0 16.21-0.41 15.48-3.57-0.47-1.95-3.99-11.2-7.82-20.52-3.85-9.33-7.49-16.21-8.11-15.28-0.61 0.94-4.21 9.72-8.02 19.53zm299.68-24.92c3.93-0.06 11.71 1.3 17.31 3.01 5.6 1.71 13.34 5.62 17.21 8.7 3.85 3.05 9.1 10.14 11.69 15.74 3.14 6.84 4.68 14.03 4.68 21.89 0.02 6.43-1.4 15.15-3.13 19.35-1.73 4.19-5.64 10.24-8.66 13.42-3.01 3.17-9.16 7.67-13.64 9.95-4.48 2.3-13.65 4.65-20.37 5.2-7 0.57-15.68-0.06-20.36-1.53-4.48-1.39-11.57-4.73-15.78-7.39-4.2-2.69-10.14-9.25-13.24-14.56-4.66-8.09-5.58-12.02-5.54-23.93 0.06-10.55 1.2-16.37 4.4-22.4 2.38-4.48 7.27-10.9 10.85-14.26 3.57-3.36 11.23-7.68 16.99-9.61 5.76-1.91 13.68-3.54 17.59-3.58zm-21.77 43.74c-0.65 4.48-0.59 10.67 0.13 13.74 0.71 3.08 3.8 7.93 6.88 10.76 4.4 4.05 7.7 5.15 15.27 5.09 7.64-0.04 11-1.24 15.93-5.66 4.23-3.81 6.62-8.21 7.43-13.75 0.75-5.03 0.12-10.79-1.65-15.09-1.57-3.83-5.15-8.65-7.96-10.75-3.16-2.38-8.35-3.81-13.71-3.75-6.45 0.04-10.18 1.47-14.88 5.66-4.32 3.85-6.64 8.15-7.44 13.75zm149.56-43.7c3.65-0.04 9.14 0.89 12.22 2.07 3.09 1.21 8.08 4.65 16.6 13.12l6.21-5.6c3.42-3.08 10.12-6.6 14.86-7.82 4.77-1.22 12.57-1.69 17.31-1.02 5.26 0.73 11.18 3.4 15.05 6.8 3.51 3.08 7.84 8.35 9.61 11.71 2.53 4.77 3.36 13.89 4.36 76.37h-26.47l0.04-26.98c0.02-14.85-0.9-29.96-2.04-33.61-1.14-3.64-3.91-7.53-6.15-8.65-2.24-1.12-7.04-2.06-10.69-2.1-4.5-0.02-8.23 1.65-11.71 5.26-4.91 5.11-5.11 6.37-6.11 66.08h-26.47v-30.55c0-29.87-0.1-30.67-5.09-35.64-3.16-3.17-7.39-5.09-11.2-5.09-3.55 0-8.45 2.06-11.71 4.91-5.58 4.91-5.6 4.95-6.62 66.37h-26.47v-93.68h13.23c13.12 0 13.24 0.06 13.18 5.6-0.06 5.3 0.12 5.42 3.56 2.16 2-1.89 6.84-4.83 10.75-6.54 3.93-1.71 10.13-3.13 13.75-3.17zm-310.05 1.89l7.64 13.28c4.21 7.29 8.55 12.79 9.67 12.24 1.12-0.55 5.48-6.56 17.31-25.62l13.75 0.08c7.57 0.04 13.74 0.55 13.74 1.1 0 0.55-6.41 10.18-14.25 21.38-7.96 11.39-13.81 21.71-13.24 23.42 0.57 1.67 6.8 12 13.85 22.91 7.05 10.92 13.46 21 14.25 22.4 1.08 1.94-2.11 2.55-28.1 2.59l-9.16-15.36c-7.17-12.01-9.59-14.72-11.2-12.42-1.12 1.63-5.46 8.53-17.31 27.74h-14.26c-10.75 0-13.93-0.63-12.91-2.55 0.73-1.4 8-12.18 30.96-45.31l-14.12-21.38c-7.76-11.75-14.09-22.08-14.09-22.91-0.02-0.84 6.17-1.55 27.47-1.59zm84.51 0.06h26.5l-1.04 92.66-25.46 1.02z"/>
		<path id="Path 2" fill-rule="evenodd" class="s1" d="m517.17 250.25c3.24 0 5.89 0.92 5.89 2.04 0 1.12 0 3.87 0 6.11 0 2.24 0 17.35 0 63.13l-12.3-1.02-0.92-25.45c-0.51-14.01-0.39-29.82 0.26-35.13 1.12-9.02 1.59-9.68 7.07-9.68zm176.95 0h14.25v24.44l4.58-3.07c2.53-1.69 6.87-3.08 9.68-3.12 2.79-0.02 8.31 2.1 12.22 4.68 4.64 3.08 8.06 7.54 9.79 12.79 1.57 4.75 2.1 11 1.3 15.2-0.77 4.05-4.27 9.99-8.06 13.74-4.87 4.81-8.57 6.62-13.52 6.64-3.75 0-8.88-1.36-11.41-3.05-3.38-2.29-4.58-2.41-4.6-0.53 0 1.65-2.52 2.36-14.23 1.52zm14.07 44.44c0.06 2.99 1.28 7.15 2.69 9.22 1.42 2.06 4.86 3.85 7.67 3.97 2.79 0.13 6.74-1.12 8.74-2.74 2.3-1.86 3.65-5.62 3.6-10.08-0.02-3.91-1.22-8.29-2.62-9.72-1.43-1.4-5.05-2.56-8.05-2.54-2.99 0.02-6.96 1.48-8.79 3.23-1.84 1.78-3.3 5.67-3.24 8.66zm57.2-44.44c7.7 0 8.15 0.35 8.15 6.11 0 5.77-0.45 6.11-8.15 6.11-7.7 0-8.14-0.34-8.14-6.11 0-5.76 0.44-6.11 8.14-6.11zm-319.72 4.08h17.82c14.23 0.02 19.14 0.83 24.44 4.07 3.64 2.24 7.53 6.37 8.65 9.16 1.12 2.79 2.04 7.4 2.04 10.19 0 2.79-1.14 7.45-2.55 10.34-1.4 2.89-4.84 6.68-7.63 8.43-2.81 1.77-10.33 3.75-28.37 5.66l-0.59 8.98c-0.55 8.62-0.84 8.98-13.81 9.35zm14.19 35.64c13.47-2.34 18.56-4.18 20-5.58 1.47-1.41 2.61-5.09 2.55-8.17-0.04-3.07-0.78-6-1.61-6.51-0.84-0.51-5.74-1.55-10.88-2.33l-9.36-1.38zm77.14-20.36l13.64 1.46 0.43 15.56c0.26 9.31 1.47 16.6 3.01 18.12 1.41 1.43 4.4 2.61 6.64 2.65 2.24 0.02 5.46-1.51 7.13-3.42 1.87-2.14 3.46-9.37 5.09-33.4l12.22 0.04-0.33 16.8c-0.18 9.25-0.4 20.25-0.69 32.08l-9.67-0.08c-5.32-0.02-12.87 0.53-16.8 1.26-5.81 1.06-8.25 0.37-13.24-3.83-5.95-5.01-6.11-5.64-6.76-26.19zm90.93-1c2.24 0 7.04 1.82 10.69 4.06 5.92 3.64 6.88 3.72 9.16 0.91 1.41-1.73 5.3-3.62 8.66-4.21 3.36-0.57 8.63-0.08 11.71 1.12 3.36 1.3 6.82 5.01 8.65 9.3 1.87 4.36 3.06 13.47 3.06 39.71l-14.24 1.02v-14.76c-0.02-8.13-0.94-16.6-2.06-18.84-1.14-2.3-4.07-4.07-6.72-4.07-2.56 0-5.8 1.14-7.16 2.54-1.51 1.55-2.47 8.64-2.41 34.11l-14.23 1.02v-14.76c-0.02-8.13-0.94-16.6-2.06-18.84q-2.04-4.07-8.14-4.07c-4.63 0-6.6 1.24-8.15 5.09-1.12 2.79-2.04 11.26-2.04 32.58l-13.23-0.4-1.02-49.49h7.13c3.93 0 7.02 0.86 6.9 1.91-0.14 1.04 2.38 0.6 5.6-1.01 3.2-1.61 7.66-2.92 9.9-2.92zm158.84 0.49l6.11 0.94c3.36 0.53 6.33 1.79 6.62 2.81 0.28 1.02 3.36 0.41 6.84-1.36 4.07-2.06 9-2.79 13.75-2.04 5.9 0.92 8.14 2.59 10.97 8.29 2.61 5.21 3.57 12.09 3.57 43.8h-14.26l-0.04-16.8c-0.04-13.09-0.84-17.61-3.56-20.45-1.94-1.99-4.44-3.56-5.56-3.5-1.12 0.06-3.67 1.69-5.66 3.63-2.9 2.79-3.63 6.76-3.57 19.3 0.04 11.2-0.67 15.83-2.48 15.95-1.41 0.1-4.56 0.32-7.01 0.51-4.36 0.32-4.48-0.35-5.09-25.38zm81.76-0.53c4.32 0 9.9 1.37 12.43 3.06 4.07 2.73 4.58 2.73 4.58 0.02 0-2.12 2.12-3.06 13.85-3.06l-0.31 27.33c-0.28 26.17-0.53 27.58-5.4 32.69-2.81 2.93-8.53 6.21-12.72 7.29-4.2 1.06-11.08 1.44-15.28 0.85-4.19-0.61-9.34-2.22-11.42-3.56-2.65-1.73-3.42-3.87-2.55-7.07 1.02-3.78 2.2-4.35 6.85-3.3 3.07 0.7 8.89 1.39 12.91 1.53 4.03 0.14 8.88-1.12 10.79-2.81 1.89-1.67 3.42-5.11 3.36-7.64-0.08-4.29-0.37-4.39-4.66-1.5-2.53 1.69-7.56 3.05-11.2 3.05-3.65 0-9.03-1.16-11.96-2.56-2.93-1.41-6.6-5.07-8.14-8.15-1.55-3.07-2.73-9.35-2.61-13.95 0.16-6.54 1.67-9.86 6.92-15.27 5.34-5.5 8.33-6.93 14.56-6.95zm-6.98 25.46c0.43 4.52 2.16 6.82 6.68 8.88 5.46 2.46 6.64 2.34 11.2-1.22 2.79-2.18 5.31-5.95 5.6-8.35 0.28-2.41-1.32-6.21-3.56-8.45-2.25-2.24-6.24-4.08-8.86-4.08-2.65 0-6.34 1.61-8.23 3.57-2.02 2.11-3.18 6.04-2.83 9.65zm-102.27-23.4h12.18l0.53 23.62c0.28 13.02 0.06 24.24-0.49 24.95-0.57 0.73-3.55 1.32-12.2 1.32zm-563.65-208.73l3.53 10.18c1.95 5.6 7.39 18.43 12.13 28.51 4.73 10.08 13.28 26.13 19.02 35.64 5.75 9.53 18.13 28.3 27.54 41.74 9.38 13.45 20.6 31.77 24.92 40.73 4.32 8.96 9.27 21.79 11 28.51 1.73 6.72 3.07 19.11 2.99 27.5-0.1 8.41-0.77 17.39-1.48 19.95-0.84 2.89-4.67 6.21-18.64 12.63l-0.91-4.58c-0.49-2.53-1.41-7.78-2.02-11.71-0.61-3.91-4.2-13.54-7.94-21.39-3.77-7.88-15.3-24.72-25.78-37.67-10.43-12.87-24.12-31.2-30.43-40.73-6.31-9.51-14.19-24.39-17.51-33.05-3.83-9.96-6.78-15.09-8.07-13.99-1.12 0.98-5.19 8.51-9.02 16.78-5.5 11.81-7.17 18.25-7.78 30.26-0.45 8.41-1.87 18.02-3.17 21.38-1.31 3.36-9.64 15.75-18.49 27.5-8.86 11.77-18.9 27.35-22.32 34.62-3.41 7.29-6.7 17.59-7.32 22.93-0.63 5.33-1.38 9.69-1.64 9.67-0.29 0-4.18-1.85-8.66-4.09-4.56-2.28-8.76-6.09-9.51-8.66-0.75-2.52-1.34-12.83-1.32-22.91 0.04-14.42 1.18-21.69 5.43-34.11 2.96-8.67 8.33-21.06 11.92-27.49 3.58-6.44 16.31-26.37 28.28-44.29 12-17.92 26.88-42.2 33.12-53.97 6.21-11.75 12.62-25.05 14.25-29.53 1.61-4.48 4.05-10.89 5.42-14.25zm-2.65 186.92l17.07 24.64c9.38 13.57 19.18 28.8 21.75 33.83 3.03 5.94 4.68 12.75 4.68 19.34 0 6.38-1.63 13.44-4.36 18.84-2.56 5.07-7.9 10.98-12.89 14.26-6.35 4.17-11.69 5.8-20.87 6.35-9.47 0.59-14.28-0.2-20.51-3.36-4.48-2.26-10.16-6.27-12.61-8.9-2.46-2.63-5.9-8.23-7.63-12.42-1.75-4.2-3.18-11.53-3.16-16.29 0.02-4.77 2.14-13.24 4.73-18.84 2.58-5.6 9.3-17.04 14.9-25.46 5.6-8.39 12.16-19.04 14.54-23.64z"/>
	</g>
</svg>