<svg xmlns="http://www.w3.org/2000/svg" width="512" height="512" viewBox="0 0 300 300" xml:space="preserve"><g fill="#f7f7f7"><circle cx="170" cy="61.394" r="4" data-original="#000000"/><path d="M170 129.394c0 6.617 5.383 12 12 12s12-5.383 12-12-5.383-12-12-12-12 5.382-12 12m12-4c2.205 0 4 1.795 4 4s-1.795 4-4 4-4-1.795-4-4 1.795-4 4-4M53.516 57.878c.781.781 1.805 1.172 2.828 1.172s2.047-.391 2.828-1.172L62 55.05l2.828 2.828c.781.781 1.805 1.172 2.828 1.172s2.047-.391 2.828-1.172a4 4 0 0 0 0-5.656l-2.828-2.828 2.828-2.828a4 4 0 1 0-5.656-5.656L62 43.737l-2.828-2.828a4 4 0 1 0-5.656 5.656l2.828 2.828-2.828 2.828a4 4 0 0 0 0 5.657M106 85.394c-6.617 0-12 5.383-12 12s5.383 12 12 12 12-5.383 12-12-5.383-12-12-12m0 16c-2.205 0-4-1.795-4-4s1.795-4 4-4 4 1.795 4 4-1.795 4-4 4m85.172-9.172c.781.781 1.805 1.172 2.828 1.172s2.047-.391 2.828-1.172l6.828-6.828h8.688l-5.172 5.172a4 4 0 1 0 5.656 5.656L218 91.05v8.688l-6.828 6.828a4 4 0 1 0 5.656 5.656L222 107.05l5.172 5.172c.781.781 1.805 1.172 2.828 1.172s2.047-.391 2.828-1.172a4 4 0 0 0 0-5.656L226 99.737V91.05l5.172 5.172c.781.781 1.805 1.172 2.828 1.172s2.047-.391 2.828-1.172a4 4 0 0 0 0-5.656l-5.172-5.172h8.688l6.828 6.828c.781.781 1.805 1.172 2.828 1.172s2.047-.391 2.828-1.172a4 4 0 0 0 0-5.656l-5.172-5.172 5.172-5.172a4 4 0 1 0-5.656-5.656l-6.828 6.828h-8.688l5.172-5.172a4 4 0 1 0-5.656-5.656L226 71.737V63.05l6.828-6.828a4 4 0 1 0-5.656-5.656L222 55.737l-5.172-5.172a4 4 0 1 0-5.656 5.656L218 63.05v8.688l-5.172-5.172a4 4 0 1 0-5.656 5.656l5.172 5.172h-8.688l-6.828-6.828a4 4 0 1 0-5.656 5.656l5.172 5.172-5.172 5.172a3.997 3.997 0 0 0 0 5.656" data-original="#000000"/><path d="M266 161.394H150v-48h12a4.002 4.002 0 0 0 2.723-6.932l-56-52a4 4 0 0 0-5.445 0l-56 52a4.001 4.001 0 0 0 2.723 6.932h12v48H34a4 4 0 0 0-4 4v16a4 4 0 0 0 4 4h32a4 4 0 0 0 0-8H38v-8h40v66.148c0 7.639 6.213 13.852 13.852 13.852h18.945a4 4 0 0 0 0-8H91.852A5.86 5.86 0 0 1 86 235.542v-66.148h40v26.148c0 7.639 6.213 13.852 13.852 13.852h35.774l-4.311 3.904a4 4 0 0 0 5.372 5.929l12-10.869a4 4 0 0 0 1.312-2.865 4 4 0 0 0-1.17-2.928l-12-12a4 4 0 1 0-5.656 5.656l5.171 5.172h-36.491a5.86 5.86 0 0 1-5.852-5.852v-26.148h128v8H146.465a4 4 0 0 0 0 8H266a4 4 0 0 0 4-4v-16a4 4 0 0 0-4-3.999m-156 0h-8v-28h8zm24 0v-20a4 4 0 0 0-8 0v20h-8v-32a4 4 0 0 0-4-4H98a4 4 0 0 0-4 4v32h-8v-20a4 4 0 0 0-8 0v20h-8v-52a4 4 0 0 0-4-4h-5.814L106 62.853l45.814 42.541H146a4 4 0 0 0-4 4v52z" data-original="#000000"/><path d="M240.148 201.394H202a4 4 0 0 0 0 8h38.148a5.86 5.86 0 0 1 5.852 5.852v20.297a5.86 5.86 0 0 1-5.852 5.852H135.657l5.171-5.172a4 4 0 1 0-5.656-5.656l-12 12a4 4 0 0 0 .142 5.793l12 10.869a4 4 0 0 0 2.684 1.035 4 4 0 0 0 2.967-1.314 4 4 0 0 0-.279-5.65l-4.311-3.904h103.774c7.639 0 13.852-6.213 13.852-13.852v-20.297c-.001-7.641-6.214-13.853-13.853-13.853" data-original="#000000"/></g></svg>