<!DOCTYPE svg PUBLIC "-//W3C//DTD SVG 1.1//EN" "http://www.w3.org/Graphics/SVG/1.1/DTD/svg11.dtd">
<!-- Uploaded to: SVG Repo, www.svgrepo.com, Transformed by: SVG Repo Mixer Tools -->
<svg fill="#000000" width="800px" height="800px" viewBox="0 0 24 24" id="sink-2" data-name="Flat Line" xmlns="http://www.w3.org/2000/svg" class="icon flat-line">
<g id="SVGRepo_bgCarrier" stroke-width="0"/>
<g id="SVGRepo_tracerCarrier" stroke-linecap="round" stroke-linejoin="round"/>
<g id="SVGRepo_iconCarrier">
<path id="secondary" d="M8,9h8a4,4,0,0,1,4,4v2a0,0,0,0,1,0,0H4a0,0,0,0,1,0,0V13A4,4,0,0,1,8,9Z" transform="translate(24 24) rotate(-180)" style="fill: #41c3aa; stroke-width: 2;"/>
<path id="primary" d="M10,5h0a2,2,0,0,1,2-2h0a2,2,0,0,1,2,2V9" style="fill: none; stroke: #f7f7f7; stroke-linecap: round; stroke-linejoin: round; stroke-width: 2;"/>
<path id="primary-2" data-name="primary" d="M10,15h4v6H10ZM21,9H3m1,2V9H20v2a4,4,0,0,1-4,4H8A4,4,0,0,1,4,11Z" style="fill: none; stroke: #f7f7f7; stroke-linecap: round; stroke-linejoin: round; stroke-width: 2;"/>
</g>
</svg>